/* XPM */
static char * catalog_xpm [] = {
"16 16 16 1",
". c #808080",
"# c #a0a0a0",
"a c #c3c3c3",
"b c #c0c000",
"c c #00ff00",
"d c #00ffff",
"e c #000000",
"f c #c0ffc0",
"g c #ffff00",
"h c #303030",
"i c #ffffc0",
"  c None",
"k c #c0ffff",
"l c #585858",
"m c #dcdcdc",
"n c #ffffff",
" hh             ",
" heehnn...nne   ",
" hhhhndgaaane   ",
" hhhhbbbaabbe   ",
" hhhhmmkbnmme   ",
" hhhhmmn.kmme   ",
" hhhh#nmmik.e   ",
" hhhhmmmmfime   ",
" heehmm##..gaae ",
" he.e    .dgaane",
"   aae   acdanaa",
"   a .   aac aaa",
"    .    aaangaa",
"         .aaagde",
"          .aace ",
"                "};

