/* XPM */
static char * cdrom_disk_xpm[] =  {
"17 17 30 1",
" 	c None",
".	c #737173",
"+	c #96CB96",
"@	c #CDCA62",
"#	c #BDBABD",
"$	c #299194",
"%	c #62CA94",
"&	c #ACB2AC",
"*	c #293029",
"=	c #CDCA94",
"-	c #DEDADE",
";	c #838183",
">	c #2991CD",
",	c #6291CD",
"'	c #62CACD",
")	c #D5D2D5",
"!	c #949194",
"~	c #9C99A4",
"{	c #629194",
"]	c #000000",
"^	c #CDCACD",
"/	c #EEEAEE",
"(	c #DEE2DE",
"_	c #E6EAE6",
":	c #FFFAFF",
"<	c #E6E6E6",
"[	c #CDFAFF",
"}	c #0091CD",
"|	c #00FA00",
"1	c #007900",
"                 ",
"         ...     ",
"       ..+@#..   ",
"      .$%+@&##*  ",
"     .%%$%=#&-&* ",
"     ;>,%';&)#&* ",
"    .!~{';];~&^^*",
"    .&&^;]/];^^^*",
"    .(/(&;];&_/^*",
"  ;;;;~&~~;$-(:* ",
" ;<<<.~~&)=%>[&* ",
" ;<###.~&^=+}}]  ",
" ;<****;;^=+**]  ",
" ;<|1<<##***#.]  ",
" .;;;;;;;;;;;;]  ",
"  ]]]]]]]]]]]]   ",
"                 "};
