/* XPM */
static char *Close_xpm[]={
"24 24 4 1",
"a c #7f7f7f",
"b c #000000",
"  c None",
"# c #ff0000",
"                        ",
"                        ",
"                        ",
"                        ",
"                        ",
"                        ",
"               #        ",
"       ##a    ###       ",
"        ##a  #####      ",
"         #######bb      ",
"          #####b        ",
"          ####b         ",
"         ######         ",
"         ##b ###        ",
"        ##b   ###       ",
"        #b     ##a      ",
"       #b       #b      ",
"       b         b      ",
"                        ",
"                        ",
"                        ",
"                        ",
"                        ",
"                        "};
