/* XPM */
static char * floppy_disk_xpm[]={
"16 16 7 1",
"c c #808080",
"d c #000000",
". c None",
"a c #bdbebd",
"b c #ffffff",
"e c #ff0000",
"# c #7b797b",
"................",
".........#######",
"........#abbbbb#",
"........#abbbbb#",
"........#abbbbb#",
"........#abbbba#",
"........#aa###a#",
".#cccccc#aad#db#",
"#bbbbbbb###ddd##",
"#aaaaaaaaaaea##.",
"#aaaa####aaaa##.",
"#abbbddddbbba##.",
"#aaaaaaaaaaaa#d.",
".ddddddddddddd..",
"................",
"................"};
