/* XPM */
static char * harddrive_disk_xpm[]={
"16 16 6 1",
"a c #c6c6c6",
"b c #000000",
"# c #848484",
". c None",
"d c #008400",
"c c #ffffff",
"................",
"................",
"................",
"................",
"..#############.",
".#aaaaaaaaaaaa#b",
"#cccccccccccc##b",
"#aaaaaaaaaada##b",
"#aaaaaaaaaaaa##b",
"#a##########a##b",
"#acccccccccca##b",
"##############b.",
".bbbbbbbbbbbbb..",
"................",
"................",
"................"};

