/* XPM */
static char * locked_folder_xpm[]={
"16 16 20 1",
"q c #808080",
"o c #c3c3c3",
"j c #d6d384",
"m c #a5a263",
"a c #cecbb5",
"n c #efeb42",
"c c #c05800",
"g c #efefd6",
"f c #efefe7",
"p c #000000",
"# c #400000",
"h c #303030",
"r c #efef29",
"b c #a5a694",
"e c #ffffc0",
"i c #efeb4a",
". c None",
"l c #dedb73",
"k c #dedf42",
"d c #ffffff",
"................",
"......###.......",
"aaaaaa###aaaaa..",
"bbbbbbcccbbbbba.",
"bdefefcccggggbh.",
"bdijklccclklkmh.",
"bdjnjopppqlklbh.",
"bdnjnooooqklkmh.",
"bdarjoqpqqlklbh.",
"bdrjroqoqqklkmh.",
"bdarjqpopplklbh.",
"bfraracc#jkjkmh.",
"mmmmmmcccmmmmmh.",
".pppppcccpppppp.",
"......###.......",
"................"};
