/* XPM */
static char *zip_disk_xpm[] = {
"16 16 24 1",
"  c none",
"# c #040404",
"a c #a0a0a4",
"b c #868686",
"c c #ffffff",
"d c #b2b2b2",
"e c #d7d7d7",
"f c #666666",
"g c #333333",
"h c #1c1c1c",
"i c #4d4d4d",
"j c #0000cc",
"k c #3333cc",
"l c #0099cc",
"m c #0066ff",
"n c #3333ff",
"o c #0000ff",
"p c #ccffff",
"q c #99ffff",
"r c #00ff00",
"s c #ff9900",
"t c #3366cc",
"u c #0099ff",
"v c #0066cc",
"     ########## ",
"    ##bagceddg##",
"    dgaaeggggggf",
"    dibbbbbbbbif",
"    di########if",
"    diccccccccif",
"    diccccccccif",
"    diccccccccif",
"    diccccccccif",
"    diccccccccif",
"  llmmnnnnoooojf",
" lmnnnnoooooojj#",
"kmmmmmmmmmnnnjjh",
"kmoooooooommmjjh",
"kmmmuuuvmmmfmji ",
" ############i  "
};
