/* XPM */
static char *gwhere[] = {
/* columns rows colors chars-per-pixel */
"32 21 14 1",
"  c black",
". c #191919",
"X c gray20",
"o c #007f7f",
"O c #7f0000",
"+ c #7f7f00",
"@ c #4c4c4c",
"# c #666667",
"$ c gray50",
"% c cyan",
"& c red",
"* c yellow",
"= c gray60",
"- c None",
/* pixels */
"-----   - .Xo@o#=#@ooX. --. ----",
"----  -.@#$=o$$$Xo$$$$=o#.--  --",
"--- -.@$=oX.------- -.X#$=o.-  -",
"-  -.$=X.- -         - -.X$=@.- ",
"- -o=o -   .---------    - @=o.-",
" -@=X-   ---------------   -.$$ ",
"-@=X-  --- -  -   -  .      -.$$",
".$@- ----------------------- -.X",
"@$.- ----.X-+O-OO.-. X+O.+OO +O.",
"o#- ----- + &+ +++-O++ .OX.++O..",
"=X- ---- -+++OO+O++++&OXX+O+O+O+",
"=X- ---- -O++++.++O+++- X+*.XX  ",
"o#- ---- - *O.* &+-O++..O.+X.+.O",
".=.- ----- @XX#X#@X@X@#@XXX#X@@+",
"-o$.- -- -.##@@#o##@#@o##@#o#o$=",
"-.$$ -  ------------------- -X$X",
" -.$o.-              .    -.o=X-",
"- -.$=@.-       -       -.X$$X- ",
"--  -@$=#..---------- -.X$$@.- -",
"---  -.@$=$#XXXo XXXX#o$=o.-  --",
"-----  -..o$====$$==%#@X.    ---"
};
